<svg data-v-423bf9ae="" xmlns="http://www.w3.org/2000/svg" viewBox="0 0 380 90" class="iconLeft"><!----><!----><!----><g data-v-423bf9ae="" id="b0e25d07-96f2-46ca-99bc-b32948add7a3" fill="white" transform="matrix(4.23131161556461,0,0,4.23131161556461,108.39210654725542,15.000000000000004)"><path d="M7.24 10.08L7.24 8.40C6.52 8.64 5.78 8.76 5.00 8.76C3.26 8.76 2.42 7.90 2.42 6.06C2.42 4.23 3.26 3.36 5.00 3.36C5.32 3.36 5.63 3.37 5.94 3.42L6.64 4.40L7.24 4.40L7.24 2.04C6.64 1.85 5.70 1.68 5.00 1.68C1.99 1.68 0.38 3.43 0.38 6.06C0.38 8.69 1.99 10.44 5.00 10.44C5.70 10.44 6.64 10.28 7.24 10.08ZM14.80 7C14.80 4.96 13.57 3.54 11.44 3.54C9.32 3.54 8.08 4.96 8.08 7C8.08 9.03 9.32 10.44 11.44 10.44C13.57 10.44 14.80 9.03 14.80 7ZM12.84 7C12.84 8.22 12.33 8.86 11.44 8.86C10.56 8.86 10.04 8.22 10.04 7C10.04 5.77 10.56 5.12 11.44 5.12C12.33 5.12 12.84 5.77 12.84 7ZM19.05 10.26L19.05 9.66L18.07 8.96L18.07 0L16.21 0L16.21 10.26ZM22.88 10.26L22.88 9.66L21.90 8.96L21.90 0L20.03 0L20.03 10.26ZM30.58 10.26L30.58 8.72C30.38 8.79 30.16 8.86 29.92 8.86C29.60 8.86 29.46 8.74 29.46 8.39L29.46 6.06C29.46 4.45 28.17 3.54 26.24 3.54C25.55 3.54 24.79 3.70 24.04 3.88L24.04 6.13L24.64 6.13L25.31 5.19C25.65 5.15 25.94 5.12 26.24 5.12C27.13 5.12 27.58 5.50 27.58 6.06L27.58 6.24L26.10 6.24C24.37 6.24 23.38 7.15 23.38 8.34C23.38 9.55 24.37 10.44 26.10 10.44C26.80 10.44 27.47 10.22 28 9.91C28.29 10.26 28.81 10.44 29.46 10.44C29.83 10.44 30.28 10.36 30.58 10.26ZM27.58 8.64C27.13 8.90 26.59 9.04 26.10 9.04C25.52 9.04 25.26 8.79 25.26 8.34C25.26 7.91 25.52 7.64 26.10 7.64L27.58 7.64ZM37.86 7C37.86 4.96 36.61 3.54 34.50 3.54C34.13 3.54 33.71 3.63 33.38 3.72L33.38 0L31.51 0L31.51 10.02C32.42 10.26 33.61 10.44 34.50 10.44C36.61 10.44 37.86 9.03 37.86 7ZM35.90 7C35.90 8.22 35.39 8.86 34.50 8.86C34.09 8.86 33.70 8.81 33.38 8.74L33.38 5.26C33.70 5.18 34.09 5.12 34.50 5.12C35.39 5.12 35.90 5.77 35.90 7ZM44.10 8.20C44.10 6.78 43.13 6.10 41.44 6.10C40.89 6.10 40.67 5.91 40.67 5.64C40.67 5.38 40.91 5.12 41.72 5.12C42.04 5.12 42.38 5.15 42.74 5.21L43.40 6.13L44.02 6.13L44.02 3.89C43.26 3.68 42.56 3.54 41.72 3.54C39.79 3.54 38.78 4.66 38.78 5.78C38.78 7.21 39.76 7.88 41.44 7.88C42 7.88 42.21 8.09 42.21 8.34C42.21 8.61 41.97 8.86 41.16 8.86C40.50 8.86 39.69 8.74 38.88 8.51L38.88 10.09C39.63 10.30 40.33 10.44 41.16 10.44C43.11 10.44 44.10 9.32 44.10 8.20ZM52.88 10.26L52.88 1.86L50.04 1.86L50.04 2.46L51.02 3.16L51.02 5.12L47.38 5.12L47.38 1.86L45.51 1.86L45.51 10.26L47.38 10.26L47.38 7L51.02 7L51.02 10.26ZM63.97 14L63.97 12.40C63.66 12.54 63.29 12.60 62.85 12.60C62.41 12.60 62.09 12.45 61.89 12.21L60.33 10.09C61.84 9.44 62.68 7.95 62.68 6.06C62.68 3.50 61.12 1.68 58.44 1.68C55.75 1.68 54.19 3.50 54.19 6.06C54.19 8.62 55.75 10.44 58.44 10.44L60.31 13.08C60.82 13.79 61.70 14.18 62.85 14.18C63.24 14.18 63.66 14.11 63.97 14ZM60.63 6.06C60.63 7.85 59.88 8.76 58.44 8.76C56.99 8.76 56.24 7.85 56.24 6.06C56.24 4.27 56.99 3.36 58.44 3.36C59.88 3.36 60.63 4.27 60.63 6.06Z"></path></g><!----><g data-v-423bf9ae="" id="1628cb9f-7e95-452c-8927-fa48d058e68c" transform="matrix(2.8125,0,0,2.8125,0,0)" stroke="none" fill="white"><path d="M4.029 14.362L14.362 4.028l.707.707L4.736 15.07zM17.135 27.47L27.47 17.135l.707.707-10.333 10.333zM4.029 17.841l.707-.707 10.333 10.334-.707.707zM17.135 4.735l.708-.707L28.176 14.36l-.707.707z"></path><g><path d="M16 1.414l1.683 1.683L16 4.779l-1.683-1.683L16 1.414M16 0l-3.097 3.097L16 6.194l3.097-3.097L16 0zM16 27.221l1.683 1.683L16 30.586l-1.683-1.683L16 27.221m0-1.415l-3.097 3.097L16 32l3.097-3.097L16 25.806zM3.097 14.317L4.779 16l-1.683 1.683L1.414 16l1.683-1.683m0-1.414L0 16l3.097 3.097L6.194 16l-3.097-3.097zM28.903 14.317L30.586 16l-1.683 1.683L27.221 16l1.682-1.683m0-1.414L25.806 16l3.097 3.097L32 16l-3.097-3.097z"></path></g></g><!----></svg>