<svg data-v-423bf9ae="" xmlns="http://www.w3.org/2000/svg" viewBox="0 0 399 90" class="iconLeft"><!----><!----><!----><g data-v-423bf9ae="" id="a93d9411-d28c-4512-a182-209ddb32f3d0" fill="#000000" transform="matrix(4.622495971313948,0,0,4.622495971313948,108.75192976902827,-0.2542372001739821)"><path d="M1.61 8.48C1.61 5.89 3.44 4.34 5.36 4.34C6.65 4.34 7.64 4.98 8.22 5.71C8.47 6.03 8.53 6.26 8.58 6.64C8.65 7.20 8.62 7.29 8.99 7.29C9.23 7.29 9.27 7.15 9.27 7.06C9.27 6.92 8.89 4.10 8.89 4.09C8.88 4.00 8.85 3.92 8.71 3.92C8.68 3.92 8.60 3.93 8.55 3.93C8.29 4.00 8.39 4.44 8.15 4.44C7.97 4.44 7.10 3.70 5.40 3.70L5.39 3.70C4.09 3.70 2.77 4.21 1.82 5.12C0.91 6.01 0.27 7.34 0.27 8.75C0.27 10.08 0.83 11.41 1.78 12.33C2.72 13.24 4.02 13.78 5.32 13.78C6.10 13.78 7.01 13.59 7.91 13.08C8.20 12.89 8.23 12.78 8.57 12.78L8.96 12.78L8.97 12.78C9.04 12.78 9.23 12.77 9.28 12.56C9.32 12.46 9.63 10.28 9.63 10.28C9.63 10.16 9.51 10.12 9.41 10.12C9.24 10.12 9.21 10.26 9.20 10.30C8.68 11.98 7.15 13.06 5.54 13.06C3.36 13.06 1.61 11.06 1.61 8.48ZM10.09 10.58C10.09 12.31 11.28 13.71 13.06 13.71C14.63 13.71 16.04 12.59 16.04 10.58C16.04 8.71 14.78 7.39 13.12 7.39C11.55 7.39 10.09 8.64 10.09 10.58ZM13.10 13.02C11.96 13.02 11.19 11.97 11.19 10.51C11.19 8.64 12.29 8.05 13.02 8.05C14.08 8.05 15.09 9.14 15.09 10.64C15.09 11.89 14.29 13.02 13.10 13.02ZM19.53 13.24C19.53 13.06 19.46 12.99 19.29 12.96C18.73 12.87 18.58 12.89 18.58 12.45L18.58 3.58C18.58 3.46 18.55 3.32 18.38 3.32C18.31 3.32 18.26 3.35 18.21 3.37C16.52 4.26 16.49 4.23 16.49 4.34L16.49 4.35C16.49 4.51 16.67 4.56 17.23 4.90C17.47 5.04 17.56 5.04 17.56 5.25L17.56 12.38C17.56 12.66 17.53 12.87 17.16 12.91C16.69 12.96 16.59 12.95 16.59 13.22L16.59 13.26C16.59 13.36 16.60 13.51 16.79 13.51C16.83 13.51 17.37 13.44 18.05 13.44C18.75 13.44 19.32 13.52 19.36 13.52C19.50 13.52 19.53 13.41 19.53 13.24ZM22.88 13.24C22.88 13.06 22.81 12.99 22.64 12.96C22.08 12.87 21.92 12.89 21.92 12.45L21.92 3.58C21.92 3.46 21.90 3.32 21.73 3.32C21.66 3.32 21.60 3.35 21.56 3.37C19.87 4.26 19.84 4.23 19.84 4.34L19.84 4.35C19.84 4.51 20.02 4.56 20.58 4.90C20.82 5.04 20.90 5.04 20.90 5.25L20.90 12.38C20.90 12.66 20.87 12.87 20.51 12.91C20.03 12.96 19.94 12.95 19.94 13.22L19.94 13.26C19.94 13.36 19.95 13.51 20.13 13.51C20.17 13.51 20.72 13.44 21.39 13.44C22.09 13.44 22.67 13.52 22.71 13.52C22.85 13.52 22.88 13.41 22.88 13.24ZM23.44 8.61C23.44 8.93 23.73 9.11 24.00 9.11C24.18 9.11 24.26 9.02 24.30 8.96C24.33 8.90 24.71 8.02 25.51 8.02C25.87 8.02 26.15 8.22 26.32 8.40C26.60 8.72 26.66 9.07 26.66 9.52L26.66 10.02C26.66 10.12 26.64 10.19 26.54 10.22C26.52 10.23 24.84 10.29 24.08 10.89C23.74 11.16 23.49 11.61 23.49 12.14L23.49 12.15C23.49 13.01 24.12 13.72 25.09 13.72C25.61 13.72 26.07 13.54 26.39 13.33C26.74 13.09 26.70 13.02 26.77 13.02C26.78 13.02 26.78 13.03 26.80 13.03C26.82 13.05 27.16 13.61 27.79 13.61C28.52 13.61 28.87 12.82 28.87 12.50C28.87 12.38 28.80 12.32 28.74 12.32C28.53 12.32 28.56 12.78 28.13 12.78C27.99 12.78 27.65 12.71 27.65 12.17L27.65 9.41C27.65 9.24 27.64 9.07 27.62 8.90C27.48 7.53 26.12 7.36 25.59 7.36C24.43 7.36 23.44 8.11 23.44 8.61ZM25.42 12.95C25.24 12.95 24.99 12.92 24.82 12.77C24.60 12.57 24.53 12.22 24.53 12.00C24.53 11.65 24.68 11.40 24.86 11.24C25.33 10.81 26.28 10.74 26.53 10.74C26.66 10.74 26.67 10.81 26.67 11.14L26.67 11.72L26.67 12.05C26.67 12.18 26.66 12.28 26.59 12.38C26.52 12.47 26.11 12.95 25.42 12.95ZM30.94 7.91C30.94 7.49 30.98 4.56 30.98 3.74C30.98 3.51 30.87 3.47 30.79 3.46C30.73 3.46 30.60 3.51 29.19 4.07C29.12 4.10 29.01 4.14 29.01 4.26C29.01 4.37 29.18 4.44 29.79 4.82C29.92 4.90 29.96 4.96 29.96 5.12C29.96 6.76 29.92 11.68 29.92 13.31C29.92 13.51 29.95 13.73 30.14 13.73C30.35 13.73 30.42 13.44 30.84 13.44C31.26 13.44 31.53 13.71 32.20 13.71C32.51 13.71 33.18 13.65 33.77 13.43C35.32 12.84 35.63 11.40 35.63 10.51C35.63 8.67 34.54 7.42 32.90 7.42C31.71 7.42 31.12 7.99 31.00 7.99C30.97 7.99 30.94 7.98 30.94 7.91ZM34.75 10.75C34.75 12.17 33.80 13.13 32.37 13.13C31.92 13.13 31.49 13.03 31.08 12.87C30.91 12.80 30.88 12.70 30.88 12.53C30.88 12.50 30.90 12.46 30.90 12.43L30.90 8.85C30.90 8.55 31.77 8.16 32.41 8.16C33.61 8.16 34.75 9.18 34.75 10.75ZM36.19 9.11C36.19 9.80 36.61 10.50 37.74 10.82C38.19 10.95 39.42 11.09 39.42 12.01C39.42 12.57 38.92 12.95 38.29 12.95C37.48 12.95 36.83 12.42 36.69 12.12C36.50 11.73 36.72 11.26 36.37 11.26C36.16 11.26 36.12 11.33 36.12 11.69C36.12 11.89 36.13 12.15 36.13 12.53C36.13 12.74 36.16 12.85 36.30 13.01C36.71 13.48 37.59 13.71 38.23 13.71C39.62 13.71 40.36 12.71 40.36 11.82C40.36 11.59 40.31 11.13 39.94 10.71C39.42 10.11 38.77 10.07 38.05 9.87C37.02 9.58 36.95 9.06 36.95 8.86C36.95 8.41 37.35 8.12 37.83 8.12C38.29 8.12 38.79 8.41 38.98 8.67C39.17 8.95 39.13 9.35 39.42 9.35C39.54 9.35 39.75 9.31 39.75 9.13C39.75 9.07 39.56 8.15 39.48 7.66C39.47 7.59 39.42 7.39 39.26 7.39C39.09 7.39 39.03 7.53 38.91 7.53C38.84 7.53 38.63 7.46 38.21 7.46C36.95 7.46 36.19 8.27 36.19 9.11ZM42.70 13.44C43.61 13.44 44.35 13.52 44.39 13.52C44.58 13.52 44.62 13.37 44.62 13.13C44.62 12.81 44.14 12.85 43.93 12.82C43.26 12.75 43.26 12.56 43.26 12.36L43.26 8.57C43.26 8.43 43.29 8.33 43.47 8.33L48.24 8.33C48.37 8.33 48.43 8.36 48.43 8.48L48.43 12.28C48.43 12.59 48.40 12.80 48.01 12.81C47.15 12.88 47.01 12.81 47.01 13.24C47.01 13.38 47.05 13.52 47.24 13.52C47.29 13.52 48.02 13.44 48.93 13.44C49.84 13.44 50.58 13.52 50.64 13.52C50.86 13.52 50.92 13.33 50.92 13.16C50.92 12.80 50.58 12.85 50.05 12.81C49.69 12.78 49.66 12.53 49.66 12.36L49.66 12.29L49.66 4.94C49.66 4.76 49.69 4.58 50.04 4.54C50.69 4.44 51.00 4.48 51.00 4.07C51.00 3.91 50.90 3.79 50.74 3.79C50.68 3.79 49.90 3.85 48.90 3.85C48.03 3.85 47.60 3.82 47.46 3.82C47.24 3.82 47.12 3.95 47.12 4.16C47.12 4.61 47.75 4.38 48.12 4.54C48.40 4.63 48.41 4.90 48.41 5.14L48.41 7.21C48.41 7.32 48.40 7.46 48.17 7.46L43.44 7.46C43.29 7.46 43.26 7.38 43.26 7.27L43.26 4.96C43.26 4.70 43.30 4.55 43.58 4.54C44.44 4.48 44.65 4.52 44.65 4.24C44.65 4.20 44.63 4.16 44.63 4.12C44.60 3.95 44.58 3.82 44.37 3.82C44.20 3.82 43.69 3.85 42.69 3.85L42.64 3.85C41.66 3.85 41.17 3.82 41.01 3.82C40.74 3.82 40.68 4.10 40.68 4.20C40.68 4.51 41.05 4.45 41.30 4.49C41.72 4.55 42.01 4.52 42.01 4.97L42.01 12.38C42.01 12.61 41.99 12.80 41.65 12.82C40.88 12.88 40.70 12.84 40.70 13.15C40.70 13.36 40.75 13.52 40.98 13.52C41.03 13.52 41.76 13.44 42.70 13.44ZM56.85 12.99C54.36 12.99 52.79 10.39 52.79 7.95C52.79 5.33 54.63 3.99 56.42 3.99C57.27 3.99 58.11 4.28 58.76 4.83C59.95 5.85 60.33 7.53 60.33 8.83C60.33 11.40 58.74 12.99 56.85 12.99ZM57.54 13.59C57.85 13.59 59.05 14.80 59.07 14.81C59.68 15.43 60.40 16.28 61.52 16.28C62.10 16.28 62.76 15.95 62.76 15.72C62.76 15.64 62.69 15.58 62.59 15.58C62.54 15.58 62.48 15.60 62.30 15.60C61.88 15.60 61.46 15.46 61.11 15.22C60.41 14.76 60.05 14.07 59.02 13.36C59.00 13.34 58.98 13.33 58.98 13.30C58.98 13.26 59.01 13.24 59.02 13.23C60.51 12.22 61.57 10.39 61.57 8.46C61.57 7.07 61.03 5.68 60.03 4.70C59.05 3.74 57.75 3.30 56.59 3.30C55.26 3.30 53.94 3.84 53.00 4.76C52.01 5.73 51.44 7.11 51.44 8.48C51.44 9.83 51.97 11.16 52.92 12.12C53.83 13.05 55.16 13.66 56.60 13.66C57.11 13.66 57.43 13.59 57.54 13.59Z"></path></g><defs data-v-423bf9ae=""><linearGradient data-v-423bf9ae="" gradientTransform="rotate(25)" id="7c3350bb-37a4-42a7-8320-10b8718b1a3c" x1="0%" y1="0%" x2="100%" y2="0%"><stop data-v-423bf9ae="" offset="0%" style="stop-color: rgb(73, 36, 126); stop-opacity: 1;"></stop><stop data-v-423bf9ae="" offset="100%" style="stop-color: rgb(170, 73, 199); stop-opacity: 1;"></stop></linearGradient></defs><g data-v-423bf9ae="" id="6fedb81d-011d-4ed5-a193-344d580e41d3" transform="matrix(2.8125,0,0,2.8125,0,0)" stroke="none" fill="url(#7c3350bb-37a4-42a7-8320-10b8718b1a3c)"><path d="M9.571 20.464l8.064 4.47 8.065-4.47v-8.939l-8.065-4.469-8.064 4.469z"></path><path d="M32 0H0v32h32l-5.054-5.172H5.054V5.172h21.892z"></path></g><!----></svg>